<?xml version="1.0" encoding="utf-8"?>
<!-- Generator: Adobe Illustrator 27.0.0, SVG Export Plug-In . SVG Version: 6.00 Build 0)  -->
<svg version="1.1" id="Layer_1" xmlns="http://www.w3.org/2000/svg" xmlns:xlink="http://www.w3.org/1999/xlink" x="0px" y="0px"
	 viewBox="0 0 152.1 46.4" style="enable-background:new 0 0 152.1 46.4;" xml:space="preserve">
<style type="text/css">
	.st0{fill:#231F20;}
	.st1{fill:#0152BB;}
	.st2{fill:#B4CBEB;}
	.st3{fill:#FFFFFF;}
</style>
<g>
	<g>
		<path class="st3" d="M57.8,22V6.1h3.5l3.5,9.1c0.1,0.3,0.2,0.6,0.3,1c0.1,0.4,0.3,0.8,0.4,1.3c0.1,0.5,0.3,0.9,0.4,1.4
			c0.1,0.4,0.2,0.8,0.3,1.2h-0.5c0.1-0.3,0.2-0.7,0.3-1.2c0.1-0.4,0.2-0.9,0.4-1.4c0.1-0.5,0.3-0.9,0.4-1.3c0.1-0.4,0.2-0.8,0.3-1
			l3.4-9.1h3.5V22h-2.4v-8.5c0-0.3,0-0.7,0-1.2c0-0.4,0-0.9,0-1.4c0-0.5,0-1,0-1.5s0-1,0-1.5H72c-0.2,0.5-0.3,1.1-0.5,1.6
			C71.3,10,71.2,10.5,71,11c-0.2,0.5-0.3,1-0.5,1.4c-0.1,0.4-0.3,0.8-0.4,1L67,22h-2l-3.3-8.5c-0.1-0.3-0.2-0.6-0.4-1
			c-0.1-0.4-0.3-0.9-0.4-1.4c-0.2-0.5-0.3-1-0.5-1.6C60.1,9,60,8.4,59.8,7.9H60c0,0.4,0,0.9,0,1.4c0,0.5,0,1,0,1.5c0,0.5,0,1,0,1.4
			c0,0.5,0,0.9,0,1.2V22L57.8,22L57.8,22z"/>
		<path class="st3" d="M81.8,22.2c-1.1,0-2.1-0.3-2.9-0.8c-0.8-0.5-1.5-1.2-1.9-2.1c-0.5-0.9-0.7-2-0.7-3.2c0-1.2,0.2-2.3,0.7-3.2
			c0.5-0.9,1.1-1.6,1.9-2.1s1.8-0.8,2.9-0.8c1.1,0,2.1,0.3,2.9,0.8c0.8,0.5,1.5,1.2,1.9,2.1c0.5,0.9,0.7,2,0.7,3.2
			c0,1.2-0.2,2.3-0.7,3.2s-1.1,1.6-1.9,2.1C83.9,22,82.9,22.2,81.8,22.2z M81.8,20.2c0.7,0,1.3-0.2,1.8-0.5c0.5-0.4,0.8-0.9,1.1-1.5
			c0.2-0.6,0.4-1.3,0.4-2.1c0-0.8-0.1-1.5-0.4-2.1c-0.2-0.6-0.6-1.1-1.1-1.5c-0.5-0.4-1.1-0.6-1.8-0.6c-0.7,0-1.3,0.2-1.7,0.6
			c-0.5,0.4-0.8,0.9-1,1.5c-0.2,0.6-0.4,1.3-0.4,2.1c0,0.8,0.1,1.4,0.4,2.1c0.2,0.6,0.6,1.1,1,1.5C80.5,20.1,81.1,20.2,81.8,20.2z"
			/>
		<path class="st3" d="M93.4,22.1c-0.8,0-1.5-0.2-2.1-0.5c-0.6-0.3-1.1-0.8-1.4-1.5c-0.3-0.7-0.5-1.5-0.5-2.5v-7.4h2.3v7.1
			c0,0.9,0.2,1.5,0.7,2c0.4,0.5,1.1,0.7,1.8,0.7c0.5,0,1-0.1,1.4-0.3c0.4-0.2,0.7-0.6,1-1c0.2-0.4,0.4-1,0.4-1.6v-6.9h2.3V22H97
			l0-2.9h0.3c-0.4,1.1-0.9,1.8-1.5,2.3C95.1,21.9,94.3,22.1,93.4,22.1z"/>
		<path class="st3" d="M104.1,15.1V22h-2.3V10.2h2.2l0,2.9h-0.3c0.3-1,0.9-1.8,1.5-2.3s1.5-0.7,2.4-0.7c0.8,0,1.5,0.2,2.1,0.5
			c0.6,0.3,1.1,0.8,1.4,1.5c0.3,0.7,0.5,1.5,0.5,2.5V22h-2.3v-7.1c0-0.9-0.2-1.5-0.7-2c-0.4-0.5-1.1-0.7-1.8-0.7
			c-0.5,0-1,0.1-1.4,0.3c-0.4,0.2-0.7,0.6-1,1C104.2,13.9,104.1,14.4,104.1,15.1z"/>
		<path class="st3" d="M119.4,10.2v1.9h-6.5v-1.9H119.4z M114.7,7.4h2.3v11.4c0,0.5,0.1,0.8,0.3,1c0.2,0.2,0.5,0.3,1,0.3
			c0.1,0,0.3,0,0.5,0c0.2,0,0.4,0,0.5-0.1l0.3,1.9c-0.2,0.1-0.5,0.1-0.8,0.1c-0.3,0-0.5,0-0.8,0c-1.1,0-1.9-0.3-2.5-0.8
			c-0.6-0.5-0.9-1.3-0.9-2.3L114.7,7.4L114.7,7.4z"/>
		<path class="st3" d="M124.6,22.2c-0.7,0-1.4-0.1-2-0.4c-0.6-0.3-1.1-0.7-1.4-1.2c-0.4-0.5-0.5-1.2-0.5-2c0-0.7,0.1-1.2,0.4-1.6
			c0.3-0.4,0.6-0.8,1-1c0.4-0.2,0.9-0.4,1.5-0.6c0.5-0.1,1.1-0.2,1.7-0.3c0.7-0.1,1.3-0.2,1.7-0.2c0.4-0.1,0.7-0.1,0.9-0.3
			c0.2-0.1,0.3-0.3,0.3-0.6V14c0-0.4-0.1-0.8-0.3-1.1s-0.4-0.5-0.8-0.7c-0.3-0.2-0.8-0.2-1.3-0.2c-0.5,0-0.9,0.1-1.3,0.2
			c-0.4,0.2-0.7,0.4-0.9,0.6c-0.2,0.3-0.4,0.5-0.5,0.8l-2.2-0.4c0.2-0.7,0.6-1.3,1-1.8c0.5-0.5,1-0.8,1.7-1s1.4-0.3,2.1-0.3
			c0.5,0,1.1,0.1,1.6,0.2c0.5,0.1,1,0.3,1.5,0.6c0.5,0.3,0.8,0.7,1.1,1.2c0.3,0.5,0.4,1.2,0.4,2V22h-2.3v-1.6h-0.1
			c-0.2,0.3-0.4,0.6-0.7,0.9c-0.3,0.3-0.7,0.5-1.1,0.7C125.8,22.1,125.3,22.2,124.6,22.2z M125.1,20.4c0.6,0,1.2-0.1,1.6-0.4
			c0.4-0.2,0.8-0.6,1-1c0.2-0.4,0.4-0.8,0.4-1.3v-1.5c-0.1,0.1-0.2,0.1-0.5,0.2c-0.2,0.1-0.5,0.1-0.8,0.2c-0.3,0.1-0.6,0.1-0.9,0.1
			c-0.3,0-0.5,0.1-0.7,0.1c-0.4,0.1-0.8,0.2-1.2,0.3c-0.4,0.1-0.7,0.3-0.9,0.6c-0.2,0.2-0.3,0.6-0.3,1c0,0.4,0.1,0.7,0.3,0.9
			c0.2,0.2,0.4,0.4,0.8,0.6C124.3,20.3,124.7,20.4,125.1,20.4z"/>
		<path class="st3" d="M134.2,8.4c-0.4,0-0.7-0.1-1-0.4c-0.3-0.3-0.4-0.6-0.4-1c0-0.4,0.1-0.7,0.4-1c0.3-0.3,0.6-0.4,1-0.4
			c0.4,0,0.7,0.1,1,0.4c0.3,0.3,0.4,0.6,0.4,1c0,0.4-0.1,0.7-0.4,1S134.6,8.4,134.2,8.4z M133,22V10.2h2.3V22L133,22L133,22z"/>
		<path class="st3" d="M140.2,15.1V22h-2.3V10.2h2.2l0,2.9h-0.3c0.3-1,0.9-1.8,1.5-2.3s1.5-0.7,2.4-0.7c0.8,0,1.5,0.2,2.1,0.5
			c0.6,0.3,1.1,0.8,1.4,1.5c0.3,0.7,0.5,1.5,0.5,2.5V22h-2.3v-7.1c0-0.9-0.2-1.5-0.7-2c-0.4-0.5-1.1-0.7-1.8-0.7
			c-0.5,0-1,0.1-1.4,0.3c-0.4,0.2-0.7,0.6-1,1C140.3,13.9,140.2,14.4,140.2,15.1z"/>
		<path class="st3" d="M57.1,42.8V27h6.7l1.4,4.9c0.1,0.4,0.3,1,0.4,1.7c0.2,0.7,0.3,1.4,0.5,2.2s0.3,1.5,0.4,2.2s0.2,1.3,0.3,1.8
			H66c0.1-0.5,0.2-1.1,0.3-1.8c0.1-0.7,0.3-1.5,0.4-2.2c0.2-0.8,0.3-1.5,0.5-2.2c0.2-0.7,0.3-1.2,0.4-1.7L69,27h6.7v15.8h-4.3v-6.1
			c0-0.4,0-0.8,0-1.4c0-0.6,0-1.2,0.1-1.9c0-0.7,0-1.4,0.1-2.1c0-0.7,0-1.4,0-2h0.3c-0.1,0.7-0.3,1.3-0.5,2.1
			c-0.2,0.7-0.3,1.4-0.5,2.1c-0.2,0.7-0.3,1.3-0.5,1.9c-0.2,0.6-0.3,1.1-0.4,1.4l-1.8,6.1h-3.6l-1.9-6.1c-0.1-0.4-0.2-0.9-0.4-1.4
			c-0.2-0.6-0.3-1.2-0.5-1.9c-0.2-0.7-0.4-1.4-0.5-2.1c-0.2-0.7-0.3-1.4-0.5-2.1h0.4c0,0.6,0,1.3,0,2c0,0.7,0,1.4,0.1,2.1
			c0,0.7,0,1.4,0.1,1.9c0,0.6,0,1.1,0,1.4v6.1L57.1,42.8L57.1,42.8z"/>
		<path class="st3" d="M83,43.1c-1.2,0-2.3-0.2-3.2-0.7c-0.9-0.5-1.6-1.2-2.1-2.1c-0.5-0.9-0.7-2-0.7-3.2c0-1.2,0.2-2.3,0.7-3.2
			s1.2-1.6,2.1-2.1c0.9-0.5,1.9-0.8,3.2-0.8c0.9,0,1.7,0.1,2.4,0.4c0.7,0.3,1.3,0.7,1.9,1.2s0.9,1.2,1.2,1.9
			c0.3,0.7,0.4,1.6,0.4,2.5v1H78.2v-2.3h8.6l-2,0.5c0-0.5-0.1-0.9-0.2-1.2c-0.1-0.3-0.4-0.6-0.6-0.7c-0.3-0.2-0.6-0.3-1-0.3
			c-0.4,0-0.7,0.1-1,0.3c-0.3,0.2-0.5,0.4-0.6,0.7c-0.1,0.3-0.2,0.7-0.2,1.2v1.7c0,0.5,0.1,0.9,0.2,1.2c0.2,0.3,0.4,0.6,0.7,0.7
			s0.7,0.2,1.1,0.2c0.3,0,0.6,0,0.8-0.1c0.2-0.1,0.4-0.2,0.6-0.4c0.2-0.2,0.3-0.3,0.4-0.5l3.8,0.4c-0.2,0.7-0.5,1.3-1,1.9
			c-0.5,0.5-1.2,1-1.9,1.2C84.9,42.9,84,43.1,83,43.1z"/>
		<path class="st3" d="M94.3,27v15.8H90V27H94.3z"/>
		<path class="st3" d="M101.6,43.1c-1.3,0-2.4-0.3-3.3-0.8c-0.9-0.5-1.6-1.2-2.1-2.1c-0.5-0.9-0.7-2-0.7-3.2c0-1.2,0.2-2.3,0.7-3.2
			c0.5-0.9,1.2-1.6,2.1-2.1c0.9-0.5,2-0.8,3.3-0.8s2.4,0.3,3.3,0.8c0.9,0.5,1.6,1.2,2.1,2.1c0.5,0.9,0.7,2,0.7,3.2
			c0,1.2-0.2,2.3-0.7,3.2c-0.5,0.9-1.2,1.6-2.1,2.1C104,42.8,102.9,43.1,101.6,43.1z M101.6,39.9c0.4,0,0.7-0.1,0.9-0.3
			c0.3-0.2,0.5-0.5,0.6-1c0.1-0.4,0.2-0.9,0.2-1.5c0-0.6-0.1-1.1-0.2-1.6c-0.1-0.4-0.4-0.7-0.6-1s-0.6-0.3-0.9-0.3
			c-0.4,0-0.7,0.1-1,0.3s-0.5,0.5-0.6,1c-0.1,0.4-0.2,0.9-0.2,1.6c0,0.6,0.1,1.1,0.2,1.5s0.4,0.8,0.6,1
			C101,39.7,101.3,39.9,101.6,39.9z"/>
		<path class="st3" d="M113.3,43c-0.9,0-1.7-0.2-2.4-0.7c-0.7-0.4-1.3-1.1-1.7-2c-0.4-0.9-0.6-2-0.6-3.3c0-1.4,0.2-2.5,0.7-3.4
			c0.4-0.9,1-1.6,1.7-2c0.7-0.4,1.5-0.6,2.3-0.6c0.6,0,1.1,0.1,1.5,0.3c0.4,0.2,0.8,0.4,1.1,0.8c0.3,0.3,0.5,0.7,0.7,1.1h0.1v-6h4.3
			v15.8h-4.2v-1.9h-0.1c-0.2,0.4-0.4,0.8-0.7,1.1s-0.7,0.5-1.1,0.7C114.3,42.9,113.8,43,113.3,43z M114.8,39.7c0.4,0,0.7-0.1,1-0.3
			c0.3-0.2,0.5-0.5,0.7-1c0.2-0.4,0.2-0.9,0.2-1.5c0-0.6-0.1-1.1-0.2-1.5c-0.2-0.4-0.4-0.7-0.7-0.9c-0.3-0.2-0.6-0.3-1-0.3
			c-0.4,0-0.7,0.1-1,0.3c-0.3,0.2-0.5,0.5-0.6,0.9c-0.1,0.4-0.2,0.9-0.2,1.5c0,0.6,0.1,1.1,0.2,1.5c0.1,0.4,0.4,0.7,0.6,0.9
			C114.1,39.6,114.4,39.7,114.8,39.7z"/>
		<path class="st3" d="M124.6,30c-0.6,0-1.1-0.2-1.5-0.6c-0.4-0.4-0.6-0.9-0.6-1.4c0-0.6,0.2-1,0.6-1.4c0.4-0.4,0.9-0.6,1.5-0.6
			c0.6,0,1.1,0.2,1.5,0.6c0.4,0.4,0.6,0.8,0.6,1.4c0,0.6-0.2,1-0.6,1.4C125.7,29.8,125.2,30,124.6,30z M122.5,42.8V31.1h4.3v11.7
			H122.5z"/>
		<path class="st3" d="M134.1,43.1c-1.2,0-2.3-0.2-3.2-0.7c-0.9-0.5-1.6-1.2-2.1-2.1c-0.5-0.9-0.7-2-0.7-3.2c0-1.2,0.2-2.3,0.7-3.2
			c0.5-0.9,1.2-1.6,2.1-2.1c0.9-0.5,1.9-0.8,3.2-0.8c0.9,0,1.7,0.1,2.4,0.4c0.7,0.3,1.3,0.7,1.9,1.2c0.5,0.5,0.9,1.2,1.2,1.9
			c0.3,0.7,0.4,1.6,0.4,2.5v1h-10.6v-2.3h8.6l-2,0.5c0-0.5-0.1-0.9-0.2-1.2c-0.1-0.3-0.4-0.6-0.6-0.7s-0.6-0.3-1-0.3
			c-0.4,0-0.7,0.1-1,0.3c-0.3,0.2-0.5,0.4-0.6,0.7c-0.1,0.3-0.2,0.7-0.2,1.2v1.7c0,0.5,0.1,0.9,0.2,1.2c0.2,0.3,0.4,0.6,0.7,0.7
			s0.7,0.2,1.1,0.2c0.3,0,0.6,0,0.8-0.1s0.4-0.2,0.6-0.4c0.2-0.2,0.3-0.3,0.4-0.5l3.8,0.4c-0.2,0.7-0.5,1.3-1,1.9
			c-0.5,0.5-1.2,1-1.9,1.2C136,42.9,135.1,43.1,134.1,43.1z"/>
		<path class="st3" d="M146.4,43.1c-1.1,0-2-0.2-2.9-0.5c-0.8-0.3-1.5-0.8-2-1.3c-0.5-0.6-0.8-1.2-1-2l4-0.4c0.1,0.4,0.3,0.8,0.6,1
			c0.3,0.2,0.7,0.4,1.3,0.4c0.4,0,0.7-0.1,1-0.2c0.2-0.1,0.4-0.3,0.4-0.6c0-0.2-0.1-0.4-0.3-0.5s-0.6-0.2-1-0.3l-2.1-0.4
			c-1.2-0.2-2.1-0.6-2.7-1.2s-0.9-1.3-0.9-2.3c0-0.8,0.2-1.5,0.7-2.1c0.4-0.6,1.1-1,1.9-1.3c0.8-0.3,1.8-0.5,2.9-0.5
			c1.1,0,2,0.1,2.8,0.4c0.8,0.3,1.4,0.7,1.9,1.2c0.5,0.5,0.8,1.2,0.9,1.9l-3.8,0.4c-0.1-0.4-0.3-0.7-0.6-0.9
			c-0.3-0.2-0.7-0.3-1.1-0.3c-0.4,0-0.7,0.1-0.9,0.2c-0.2,0.1-0.4,0.3-0.4,0.6c0,0.2,0.1,0.3,0.2,0.5c0.2,0.1,0.4,0.3,0.9,0.3
			l2.4,0.4c1.2,0.2,2.1,0.6,2.7,1.1c0.6,0.5,0.9,1.2,0.9,2.1c0,0.8-0.2,1.6-0.7,2.2c-0.5,0.6-1.2,1.1-2,1.4
			C148.5,42.9,147.5,43.1,146.4,43.1z"/>
	</g>
	<g>
		<path class="st1" d="M46.4,23.2c0,4.2-1.1,8.2-3.1,11.6L23.2,14.7L3.1,34.8C1.1,31.4,0,27.4,0,23.2C0,10.4,10.4,0,23.2,0
			S46.4,10.4,46.4,23.2z"/>
		<path class="st2" d="M43.3,34.8c-1,1.8-2.3,3.4-3.7,4.8c-4.2,4.2-10,6.8-16.4,6.8V14.7L43.3,34.8z"/>
		<path class="st3" d="M23.2,14.7v31.7c-8.6,0-16.1-4.7-20.1-11.6L23.2,14.7z"/>
	</g>
</g>
</svg>
